<mxfile host="app.diagrams.net" modified="2020-10-27T03:13:06.209Z" agent="5.0 (Windows NT 10.0; Win64; x64) AppleWebKit/537.36 (KHTML, like Gecko) Chrome/86.0.4240.111 Safari/537.36" etag="q27e2rkamguyfp7tfafn" version="13.8.3" type="github">
  <diagram id="z6wJfcATSdNheKgYSctD" name="Page-1">
    <mxGraphModel dx="1038" dy="547" grid="1" gridSize="10" guides="1" tooltips="1" connect="1" arrows="1" fold="1" page="1" pageScale="1" pageWidth="850" pageHeight="1100" math="0" shadow="0">
      <root>
        <mxCell id="0" />
        <mxCell id="1" parent="0" />
        <mxCell id="JUD1KP2gCR8DiLOK388V-1" value="User" style="shape=umlActor;verticalLabelPosition=bottom;verticalAlign=top;html=1;outlineConnect=0;" parent="1" vertex="1">
          <mxGeometry x="90" y="260" width="30" height="60" as="geometry" />
        </mxCell>
        <mxCell id="JUD1KP2gCR8DiLOK388V-2" value="" style="endArrow=classic;html=1;" parent="1" source="JUD1KP2gCR8DiLOK388V-1" target="JUD1KP2gCR8DiLOK388V-7" edge="1">
          <mxGeometry width="50" height="50" relative="1" as="geometry">
            <mxPoint x="400" y="430" as="sourcePoint" />
            <mxPoint x="180" y="289" as="targetPoint" />
          </mxGeometry>
        </mxCell>
        <mxCell id="JUD1KP2gCR8DiLOK388V-10" value="Select Google &lt;br&gt;Stock Prediction" style="edgeLabel;html=1;align=center;verticalAlign=middle;resizable=0;points=[];" parent="JUD1KP2gCR8DiLOK388V-2" vertex="1" connectable="0">
          <mxGeometry x="-0.1" y="-1" relative="1" as="geometry">
            <mxPoint x="6" y="-21" as="offset" />
          </mxGeometry>
        </mxCell>
        <mxCell id="JUD1KP2gCR8DiLOK388V-5" value="AWS&lt;br&gt;MySQL" style="shape=datastore;whiteSpace=wrap;html=1;" parent="1" vertex="1">
          <mxGeometry x="770" y="245" width="70" height="90" as="geometry" />
        </mxCell>
        <mxCell id="JUD1KP2gCR8DiLOK388V-7" value="" style="shadow=0;dashed=0;html=1;strokeColor=none;fillColor=#4495D1;labelPosition=center;verticalLabelPosition=bottom;verticalAlign=top;align=center;outlineConnect=0;shape=mxgraph.veeam.2d.web_ui;" parent="1" vertex="1">
          <mxGeometry x="240" y="250" width="90" height="80" as="geometry" />
        </mxCell>
        <mxCell id="JUD1KP2gCR8DiLOK388V-8" value="ML Module&lt;br&gt;&amp;nbsp;For Prediction" style="outlineConnect=0;fontColor=#232F3E;gradientColor=#4AB29A;gradientDirection=north;fillColor=#116D5B;strokeColor=#ffffff;dashed=0;verticalLabelPosition=bottom;verticalAlign=top;align=center;html=1;fontSize=12;fontStyle=0;aspect=fixed;shape=mxgraph.aws4.resourceIcon;resIcon=mxgraph.aws4.forecast;" parent="1" vertex="1">
          <mxGeometry x="621" y="250" width="78" height="78" as="geometry" />
        </mxCell>
        <mxCell id="JUD1KP2gCR8DiLOK388V-9" value="" style="aspect=fixed;perimeter=ellipsePerimeter;html=1;align=center;shadow=0;dashed=0;spacingTop=3;image;image=img/lib/active_directory/web_server.svg;" parent="1" vertex="1">
          <mxGeometry x="430" y="240" width="80" height="100" as="geometry" />
        </mxCell>
        <mxCell id="JUD1KP2gCR8DiLOK388V-11" value="" style="endArrow=classic;html=1;" parent="1" edge="1">
          <mxGeometry width="50" height="50" relative="1" as="geometry">
            <mxPoint x="335" y="283.5" as="sourcePoint" />
            <mxPoint x="430" y="283.5" as="targetPoint" />
          </mxGeometry>
        </mxCell>
        <mxCell id="JUD1KP2gCR8DiLOK388V-12" value="Forward Request" style="edgeLabel;html=1;align=center;verticalAlign=middle;resizable=0;points=[];" parent="JUD1KP2gCR8DiLOK388V-11" vertex="1" connectable="0">
          <mxGeometry x="-0.2" y="2" relative="1" as="geometry">
            <mxPoint x="8" y="-14" as="offset" />
          </mxGeometry>
        </mxCell>
        <mxCell id="JUD1KP2gCR8DiLOK388V-13" value="" style="endArrow=classic;html=1;" parent="1" edge="1">
          <mxGeometry width="50" height="50" relative="1" as="geometry">
            <mxPoint x="430" y="295" as="sourcePoint" />
            <mxPoint x="330" y="295" as="targetPoint" />
          </mxGeometry>
        </mxCell>
        <mxCell id="JUD1KP2gCR8DiLOK388V-15" value="Return Data" style="edgeLabel;html=1;align=center;verticalAlign=middle;resizable=0;points=[];" parent="JUD1KP2gCR8DiLOK388V-13" vertex="1" connectable="0">
          <mxGeometry x="-0.06" y="2" relative="1" as="geometry">
            <mxPoint x="-3" y="7" as="offset" />
          </mxGeometry>
        </mxCell>
        <mxCell id="JUD1KP2gCR8DiLOK388V-16" value="" style="endArrow=classic;html=1;" parent="1" target="JUD1KP2gCR8DiLOK388V-17" edge="1">
          <mxGeometry width="50" height="50" relative="1" as="geometry">
            <mxPoint x="240" y="300" as="sourcePoint" />
            <mxPoint x="190" y="380" as="targetPoint" />
          </mxGeometry>
        </mxCell>
        <mxCell id="JUD1KP2gCR8DiLOK388V-20" value="Display the graph &lt;br&gt;from the prediction" style="edgeLabel;html=1;align=center;verticalAlign=middle;resizable=0;points=[];" parent="JUD1KP2gCR8DiLOK388V-16" vertex="1" connectable="0">
          <mxGeometry x="0.0476" y="2" relative="1" as="geometry">
            <mxPoint x="53.989999999999995" y="11.58" as="offset" />
          </mxGeometry>
        </mxCell>
        <mxCell id="JUD1KP2gCR8DiLOK388V-17" value="" style="pointerEvents=1;shadow=0;dashed=0;html=1;strokeColor=none;fillColor=#434445;aspect=fixed;labelPosition=center;verticalLabelPosition=bottom;verticalAlign=top;align=center;outlineConnect=0;shape=mxgraph.vvd.nsx_dashboard;" parent="1" vertex="1">
          <mxGeometry x="140" y="390" width="68.02" height="63.25" as="geometry" />
        </mxCell>
        <mxCell id="JUD1KP2gCR8DiLOK388V-19" value="" style="endArrow=classic;html=1;" parent="1" target="JUD1KP2gCR8DiLOK388V-17" edge="1">
          <mxGeometry width="50" height="50" relative="1" as="geometry">
            <mxPoint x="120" y="290" as="sourcePoint" />
            <mxPoint x="110" y="410" as="targetPoint" />
          </mxGeometry>
        </mxCell>
        <mxCell id="JUD1KP2gCR8DiLOK388V-21" value="View Prediction" style="edgeLabel;html=1;align=center;verticalAlign=middle;resizable=0;points=[];" parent="JUD1KP2gCR8DiLOK388V-19" vertex="1" connectable="0">
          <mxGeometry x="0.1583" y="2" relative="1" as="geometry">
            <mxPoint x="-40.769999999999996" y="12.48" as="offset" />
          </mxGeometry>
        </mxCell>
        <mxCell id="JUD1KP2gCR8DiLOK388V-26" value="" style="endArrow=classic;html=1;exitX=1;exitY=0.35;exitDx=0;exitDy=0;exitPerimeter=0;" parent="1" edge="1">
          <mxGeometry width="50" height="50" relative="1" as="geometry">
            <mxPoint x="510" y="282" as="sourcePoint" />
            <mxPoint x="610" y="282" as="targetPoint" />
          </mxGeometry>
        </mxCell>
        <mxCell id="JUD1KP2gCR8DiLOK388V-28" value="" style="endArrow=classic;html=1;entryX=1.05;entryY=0.6;entryDx=0;entryDy=0;entryPerimeter=0;" parent="1" target="JUD1KP2gCR8DiLOK388V-9" edge="1">
          <mxGeometry width="50" height="50" relative="1" as="geometry">
            <mxPoint x="610" y="300" as="sourcePoint" />
            <mxPoint x="520" y="300" as="targetPoint" />
          </mxGeometry>
        </mxCell>
        <mxCell id="JUD1KP2gCR8DiLOK388V-29" value="Return Data" style="edgeLabel;html=1;align=center;verticalAlign=middle;resizable=0;points=[];" parent="1" vertex="1" connectable="0">
          <mxGeometry x="560" y="310" as="geometry" />
        </mxCell>
        <mxCell id="JUD1KP2gCR8DiLOK388V-30" value="" style="shape=doubleArrow;whiteSpace=wrap;html=1;" parent="1" vertex="1">
          <mxGeometry x="710" y="285" width="58" height="10" as="geometry" />
        </mxCell>
      </root>
    </mxGraphModel>
  </diagram>
</mxfile>
